<?xml version="1.0" encoding="iso-8859-1"?>
<!-- Uploaded to: SVG Repo, www.svgrepo.com, Generator: SVG Repo Mixer Tools -->
<svg version="1.1" id="Layer_1" xmlns="http://www.w3.org/2000/svg" xmlns:xlink="http://www.w3.org/1999/xlink" 
	 viewBox="0 0 512 512" xml:space="preserve">
<polygon style="fill:#77757E;" points="290.509,331.62 264.594,286.776 250.956,263.176 234.522,234.741 214.07,246.56 
	237.315,286.783 250.952,310.38 263.226,331.62 "/>
<polygon style="opacity:0.61;fill:#3E3B43;enable-background:new    ;" points="249.618,308.072 254.638,316.758 272.724,300.844 
	263.31,284.552 "/>
<g>
	<polygon style="fill:#77757E;" points="405.967,482.825 364.66,442.883 418.2,416.046 427.738,464.01 	"/>
	<polygon style="fill:#77757E;" points="147.999,442.883 106.693,482.825 83.493,433.907 151.38,425.608 	"/>
</g>
<rect x="106.694" y="331.619" style="fill:#DFDFE2;" width="299.278" height="111.26"/>
<g>
	<polygon style="fill:#ACAAB1;" points="106.693,482.723 8.237,482.723 36.707,431.014 8.237,379.304 106.693,379.304 	"/>
	<polygon style="fill:#ACAAB1;" points="405.967,379.406 504.422,379.406 475.952,431.116 504.422,482.825 405.967,482.825 	"/>
</g>
<rect x="279.982" y="187.819" transform="matrix(0.8658 0.5004 -0.5004 0.8658 160.982 -140.663)" style="fill:#DFDFE2;" width="125.497" height="83.941"/>
<g>
	<polygon style="fill:#77757E;" points="238.681,331.62 287.837,246.56 267.385,234.741 211.398,331.62 	"/>
	
		<rect x="368.567" y="211.575" transform="matrix(0.8658 0.5004 -0.5004 0.8658 168.6071 -163.6944)" style="fill:#77757E;" width="41.829" height="41.829"/>
	
		<rect x="311.42" y="226.87" transform="matrix(0.8658 0.5004 -0.5004 0.8658 168.5913 -133.0459)" style="fill:#77757E;" width="41.829" height="41.829"/>
	
		<rect x="296.131" y="169.715" transform="matrix(0.8658 0.5004 -0.5004 0.8658 137.9391 -133.0653)" style="fill:#77757E;" width="41.829" height="41.829"/>
</g>
<rect x="96.446" y="187.822" transform="matrix(-0.8658 0.5004 -0.5004 -0.8658 412.0117 349.0846)" style="fill:#DFDFE2;" width="125.497" height="83.941"/>
<g>
	<polygon style="opacity:0.21;fill:#77757E;enable-background:new    ;" points="136.291,274.251 101.77,214.516 83.842,224.876 
		125.846,297.557 234.502,234.763 227.022,221.816 	"/>
	<polygon style="opacity:0.21;fill:#77757E;enable-background:new    ;" points="365.597,274.251 400.118,214.516 418.046,224.876 
		376.042,297.557 267.385,234.763 274.866,221.816 	"/>
	
		<rect x="91.522" y="211.573" transform="matrix(-0.8658 0.5004 -0.5004 -0.8658 326.1194 377.5112)" style="fill:#77757E;" width="41.829" height="41.829"/>
	
		<rect x="148.677" y="226.851" transform="matrix(-0.8658 0.5004 -0.5004 -0.8658 440.4047 377.4175)" style="fill:#77757E;" width="41.829" height="41.829"/>
	
		<rect x="163.965" y="169.705" transform="matrix(-0.8658 0.5004 -0.5004 -0.8658 440.3323 263.144)" style="fill:#77757E;" width="41.829" height="41.829"/>
</g>
<path style="fill:#EEBF00;" d="M172.991,89.242c-15.038,7.943-36.174-2.551-36.174-2.551s3.246-23.374,18.284-31.317
	s36.174,2.551,36.174,2.551S188.029,81.299,172.991,89.242z"/>
<path style="opacity:0.27;fill:#663C1D;enable-background:new    ;" d="M172.991,82.255c-12.73,6.724-29.826,0.237-34.774-1.914
	c-1.036,3.75-1.399,6.35-1.399,6.35s21.136,10.495,36.174,2.551s18.284-31.317,18.284-31.317s-0.502-0.249-1.399-0.639
	C187.802,64.8,183.022,76.957,172.991,82.255z"/>
<path style="fill:#EEBF00;" d="M129.227,60.489c-0.472,17.001-19.999,30.251-19.999,30.251S90.466,76.426,90.939,59.426
	s19.999-30.251,19.999-30.251S129.699,43.487,129.227,60.489z"/>
<path style="opacity:0.27;fill:#663C1D;enable-background:new    ;" d="M109.228,79.903c0,0-14.576-11.128-17.704-25.412
	c-0.334,1.49-0.542,3.019-0.585,4.58c-0.472,17.001,18.289,31.314,18.289,31.314s19.527-13.251,19.999-30.251
	c0.056-2.012-0.165-3.984-0.585-5.901C125.331,68.973,109.228,79.903,109.228,79.903z"/>
<path style="fill:#EEBF00;" d="M143.625,101.191c11.223,12.778,5.932,35.776,5.932,35.776s-23.488,2.279-34.711-10.499
	s-5.932-35.776-5.932-35.776S132.402,88.412,143.625,101.191z"/>
<path style="opacity:0.27;fill:#663C1D;enable-background:new    ;" d="M149.558,127.358c0,0-23.488,2.279-34.711-10.499
	c-4.614-5.254-6.434-12.232-6.982-18.633c-0.613,7.848-0.161,20.11,6.982,28.241c11.223,12.778,34.711,10.499,34.711,10.499
	s1.832-7.976,1.049-17.143C150.256,124.309,149.558,127.358,149.558,127.358z"/>
<path style="fill:#EEBF00;" d="M83.261,86.571c1.483,16.943-16.393,32.348-16.393,32.348s-20.281-12.065-21.764-29.007
	s16.393-32.348,16.393-32.348S81.778,69.628,83.261,86.571z"/>
<path style="opacity:0.27;fill:#663C1D;enable-background:new    ;" d="M83.076,83.724c-2.923,13.789-15.893,24.975-15.893,24.975
	S49.395,98.115,45.919,82.854c-0.507,2.395-0.719,4.866-0.5,7.373c1.483,16.943,21.764,29.007,21.764,29.007
	s17.876-15.405,16.393-32.348C83.483,85.812,83.312,84.757,83.076,83.724z"/>
<path style="fill:#EEBF00;" d="M102.33,127.547c11.897,12.154,7.856,35.403,7.856,35.403s-23.33,3.544-35.227-8.609
	s-7.856-35.403-7.856-35.403S90.434,115.394,102.33,127.547z"/>
<path style="opacity:0.27;fill:#663C1D;enable-background:new    ;" d="M75.606,144.616c-6.228-6.362-8.298-15.588-8.831-23.128
	c-0.653,6.357-1.324,23.143,8.183,32.855c11.897,12.154,35.227,8.609,35.227,8.609s0.653-3.768,0.66-9.06
	C106.83,154.322,86.609,155.856,75.606,144.616z"/>
<path style="fill:#EEBF00;" d="M46.206,115.56c10.319,13.52,3.459,36.099,3.459,36.099s-23.589,0.66-33.908-12.86
	S12.299,102.7,12.299,102.7S35.887,102.041,46.206,115.56z"/>
<path style="opacity:0.27;fill:#663C1D;enable-background:new    ;" d="M51.484,141.706c0,0-24.405,0.682-35.081-13.305
	c-3.887-5.092-5.411-11.426-5.787-17.424c-1.053,7.808-1.195,19.519,5.141,27.821c10.319,13.52,33.908,12.86,33.908,12.86
	s1.314-4.327,1.927-10.328C51.526,141.568,51.484,141.706,51.484,141.706z"/>
<path style="fill:#EEBF00;" d="M59.34,379.406H30.992V187.291c0-1.674,1.357-3.031,3.031-3.031h22.285
	c1.674,0,3.031,1.357,3.031,3.031V379.406z"/>
<path style="opacity:0.27;fill:#663C1D;enable-background:new    ;" d="M56.307,184.26h-6.187v185.926H30.992v9.22H59.34V187.293
	C59.34,185.618,57.982,184.26,56.307,184.26z"/>
<path style="fill:#77757E;" d="M322.277,401.412H183.749c-7.789,0-14.161-6.372-14.161-14.161l0,0
	c0-7.789,6.372-14.161,14.161-14.161h138.529c7.789,0,14.161,6.372,14.161,14.161l0,0
	C336.438,395.04,330.066,401.412,322.277,401.412z"/>
<g>
	<polygon style="opacity:0.61;fill:#3E3B43;enable-background:new    ;" points="242.515,248.572 238.815,242.17 236.868,238.8 
		234.522,234.741 214.07,246.56 217.389,252.303 219.336,255.671 221.088,258.704 	"/>
	<polygon style="opacity:0.61;fill:#3E3B43;enable-background:new    ;" points="259.391,248.572 263.091,242.17 265.038,238.8 
		267.385,234.741 287.837,246.56 284.519,252.303 282.572,255.671 280.819,258.704 	"/>
</g>
<path style="fill:#EEBF00;" d="M341.398,89.242c15.038,7.943,36.174-2.551,36.174-2.551s-3.246-23.374-18.284-31.317
	s-36.174,2.551-36.174,2.551S326.36,81.299,341.398,89.242z"/>
<path style="opacity:0.27;fill:#663C1D;enable-background:new    ;" d="M341.398,82.255c12.73,6.724,29.826,0.237,34.774-1.914
	c1.036,3.75,1.399,6.35,1.399,6.35s-21.136,10.495-36.174,2.551s-18.284-31.317-18.284-31.317s0.502-0.249,1.399-0.639
	C326.587,64.8,331.367,76.957,341.398,82.255z"/>
<path style="fill:#EEBF00;" d="M385.163,60.489c0.472,17.001,19.999,30.251,19.999,30.251s18.761-14.314,18.289-31.314
	c-0.472-17.001-19.999-30.251-19.999-30.251S384.69,43.487,385.163,60.489z"/>
<path style="opacity:0.27;fill:#663C1D;enable-background:new    ;" d="M405.16,79.903c0,0,14.576-11.128,17.704-25.412
	c0.334,1.49,0.542,3.019,0.585,4.58c0.472,17.001-18.289,31.314-18.289,31.314s-19.527-13.251-19.999-30.251
	c-0.056-2.012,0.165-3.984,0.585-5.901C389.058,68.973,405.16,79.903,405.16,79.903z"/>
<path style="fill:#EEBF00;" d="M370.764,101.191c-11.223,12.778-5.932,35.776-5.932,35.776s23.488,2.279,34.711-10.499
	c11.223-12.778,5.932-35.776,5.932-35.776S381.987,88.412,370.764,101.191z"/>
<path style="opacity:0.27;fill:#663C1D;enable-background:new    ;" d="M364.831,127.358c0,0,23.488,2.279,34.711-10.499
	c4.614-5.254,6.434-12.232,6.982-18.633c0.613,7.848,0.161,20.11-6.982,28.241c-11.223,12.778-34.711,10.499-34.711,10.499
	s-1.832-7.976-1.049-17.143C364.134,124.309,364.831,127.358,364.831,127.358z"/>
<path style="fill:#EEBF00;" d="M431.128,86.571c-1.483,16.943,16.393,32.348,16.393,32.348s20.281-12.065,21.764-29.007
	c1.483-16.943-16.393-32.348-16.393-32.348S432.611,69.628,431.128,86.571z"/>
<path style="opacity:0.27;fill:#663C1D;enable-background:new    ;" d="M431.313,83.724c2.923,13.789,15.893,24.975,15.893,24.975
	s17.788-10.583,21.264-25.845c0.507,2.395,0.719,4.866,0.5,7.373c-1.483,16.943-21.764,29.007-21.764,29.007
	s-17.876-15.405-16.393-32.348C430.906,85.812,431.077,84.757,431.313,83.724z"/>
<path style="fill:#EEBF00;" d="M412.059,127.547c-11.897,12.154-7.855,35.403-7.855,35.403s23.33,3.544,35.227-8.609
	c11.897-12.154,7.855-35.403,7.855-35.403S423.956,115.394,412.059,127.547z"/>
<path style="opacity:0.27;fill:#663C1D;enable-background:new    ;" d="M438.783,144.616c6.228-6.362,8.298-15.588,8.831-23.128
	c0.653,6.357,1.324,23.143-8.183,32.855c-11.897,12.154-35.227,8.609-35.227,8.609s-0.653-3.768-0.66-9.06
	C407.559,154.322,427.779,155.856,438.783,144.616z"/>
<path style="fill:#EEBF00;" d="M468.182,115.56c-10.319,13.52-3.459,36.099-3.459,36.099s23.589,0.66,33.908-12.86
	s3.458-36.099,3.458-36.099S478.501,102.041,468.182,115.56z"/>
<path style="opacity:0.27;fill:#663C1D;enable-background:new    ;" d="M462.904,141.706c0,0,24.405,0.682,35.081-13.305
	c3.887-5.092,5.411-11.426,5.787-17.424c1.053,7.808,1.195,19.519-5.141,27.821c-10.319,13.52-33.908,12.86-33.908,12.86
	s-1.314-4.327-1.927-10.328C462.863,141.568,462.904,141.706,462.904,141.706z"/>
<path style="fill:#EEBF00;" d="M455.049,379.406h28.348V187.291c0-1.674-1.357-3.031-3.031-3.031H458.08
	c-1.674,0-3.031,1.357-3.031,3.031V379.406z"/>
<path style="opacity:0.27;fill:#663C1D;enable-background:new    ;" d="M480.364,184.26h-6.187v185.926h-19.128v9.22h28.348V187.293
	C483.397,185.618,482.039,184.26,480.364,184.26z"/>
<path d="M484.602,431.116l26.459-48.056c1.292-2.347,1.249-5.202-0.114-7.51c-1.364-2.308-3.844-3.723-6.524-3.723h-15.178V184.26
	c0-4.186-3.392-7.578-7.578-7.578h-5.511c-0.04-6.184-0.655-12.233-1.792-18.1c9.141-1.257,22.518-4.874,30.389-15.187
	c12.528-16.416,5.011-41.825,4.685-42.899c-0.948-3.118-3.781-5.282-7.038-5.372c-0.844-0.03-15.839-0.336-28.595,6.356
	c1.55-3.362,2.642-7.012,2.984-10.909c1.8-20.573-18.146-38.016-18.997-38.749c-2.467-2.126-6.019-2.437-8.819-0.773
	c-0.672,0.4-11.865,7.175-19.212,18.195c0.933-3.184,1.461-6.542,1.364-10.032c-0.574-20.644-22.391-35.68-23.319-36.31
	c-2.696-1.83-6.261-1.731-8.851,0.246c-0.892,0.681-21.841,16.905-21.269,37.549c0.035,1.277,0.154,2.532,0.342,3.765
	c-3.36-6.131-8.2-12.144-15.102-15.79c-18.259-9.645-42.077,1.966-43.084,2.464c-2.919,1.45-4.583,4.602-4.135,7.829
	c0.154,1.112,3.99,27.331,22.25,36.976c5.326,2.813,11.123,3.818,16.691,3.818c2.622,0,5.192-0.225,7.638-0.587
	c-10.632,15.631-5.554,38.465-5.319,39.491c0.731,3.176,3.41,5.529,6.653,5.843c0.275,0.026,2.082,0.19,4.855,0.19
	c6.91,0,19.811-1.019,29.912-7.711c-3.922,13.015-1.688,26.474-1.552,27.26c0.559,3.211,3.106,5.704,6.328,6.195
	c0.387,0.059,3.823,0.558,8.751,0.558c9.208,0,23.62-1.744,33.03-11.356c4.571-4.669,7.256-10.476,8.791-16.271
	c1.283,2.858,2.422,5.794,3.382,8.811c0.236,0.94,0.412,1.534,0.456,1.677c0.043,0.144,0.111,0.276,0.164,0.416
	c2.059,7.127,3.198,14.638,3.257,22.406h-7.673c-4.186,0-7.578,3.392-7.578,7.578v187.569h-32.198V331.62
	c0-4.186-3.392-7.578-7.578-7.578H294.881l-21.535-37.263l17.26-29.866l81.645,47.183c1.163,0.672,2.471,1.017,3.792,1.017
	c0.656,0,1.314-0.085,1.958-0.258c1.941-0.519,3.597-1.789,4.602-3.528l21.07-36.46l0.001-0.002l20.932-36.22
	c0.127-0.22,0.242-0.446,0.347-0.675c0.068-0.15,0.122-0.302,0.179-0.454c0.03-0.081,0.067-0.159,0.094-0.239
	c0.066-0.193,0.117-0.388,0.167-0.584c0.011-0.042,0.025-0.085,0.035-0.127c0.046-0.201,0.081-0.403,0.11-0.606
	c0.006-0.041,0.016-0.082,0.021-0.123c0.025-0.194,0.038-0.389,0.049-0.583c0.003-0.053,0.01-0.105,0.012-0.158
	c0.006-0.181-0.001-0.36-0.008-0.54c-0.003-0.068,0-0.135-0.004-0.203c-0.011-0.173-0.035-0.344-0.059-0.514
	c-0.01-0.074-0.014-0.149-0.026-0.222c-0.081-0.487-0.209-0.965-0.382-1.428c-0.023-0.062-0.053-0.119-0.077-0.18
	c-0.069-0.169-0.137-0.337-0.218-0.502c-0.024-0.048-0.053-0.094-0.078-0.141c-0.089-0.173-0.181-0.344-0.283-0.509
	c-0.019-0.03-0.041-0.059-0.061-0.089c-0.114-0.179-0.232-0.354-0.362-0.523c-0.011-0.014-0.024-0.028-0.035-0.042
	c-0.139-0.18-0.286-0.355-0.443-0.522c-0.014-0.015-0.03-0.028-0.044-0.043c-0.155-0.163-0.315-0.32-0.485-0.471
	c-0.042-0.037-0.089-0.07-0.131-0.105c-0.146-0.122-0.293-0.245-0.45-0.358c-0.204-0.146-0.415-0.284-0.635-0.411l-108.658-62.793
	c-1.133-0.655-2.363-0.984-3.586-1.016c-2.443-0.065-4.848,1.058-6.345,3.134c-0.15,0.208-0.291,0.424-0.421,0.652l-20.932,36.219
	c0,0,0,0.001-0.001,0.001l-21.071,36.461l-9.871,17.081l-9.871-17.081l-21.071-36.461v-0.001l-20.932-36.219
	c-2.094-3.623-6.73-4.864-10.352-2.768L80.069,218.292c-0.219,0.126-0.431,0.265-0.636,0.411c-0.157,0.113-0.303,0.235-0.45,0.358
	c-0.042,0.036-0.09,0.069-0.131,0.105c-0.171,0.15-0.33,0.308-0.485,0.471c-0.014,0.015-0.03,0.028-0.044,0.043
	c-0.157,0.168-0.303,0.343-0.443,0.522c-0.011,0.014-0.024,0.028-0.035,0.042c-0.129,0.169-0.248,0.345-0.362,0.523
	c-0.019,0.03-0.041,0.059-0.061,0.089c-0.102,0.166-0.194,0.336-0.283,0.509c-0.025,0.047-0.054,0.093-0.078,0.141
	c-0.081,0.165-0.15,0.333-0.218,0.502c-0.024,0.061-0.054,0.118-0.077,0.18c-0.174,0.463-0.302,0.943-0.383,1.431
	c-0.008,0.049-0.01,0.099-0.017,0.149c-0.028,0.196-0.054,0.391-0.067,0.589c-0.003,0.044-0.001,0.089-0.003,0.133
	c-0.01,0.203-0.016,0.406-0.009,0.61c0.001,0.031,0.006,0.064,0.007,0.095c0.009,0.214,0.025,0.429,0.053,0.644
	c0.003,0.023,0.009,0.045,0.012,0.069c0.031,0.22,0.069,0.441,0.12,0.659c0.007,0.028,0.016,0.056,0.023,0.084
	c0.052,0.21,0.108,0.419,0.179,0.625c0.023,0.068,0.054,0.133,0.079,0.2c0.061,0.165,0.121,0.329,0.194,0.491
	c0.104,0.229,0.218,0.455,0.346,0.675l20.932,36.22l0.001,0.002l21.07,36.46c1.005,1.74,2.661,3.01,4.602,3.528
	c0.645,0.173,1.302,0.258,1.958,0.258c1.321,0,2.629-0.346,3.792-1.017l81.644-47.183l17.26,29.867l-21.534,37.262H106.693
	c-4.186,0-7.578,3.392-7.578,7.578v40.209H66.918V184.26c0-4.186-3.392-7.578-7.578-7.578h-5.846
	c0.06-7.768,1.198-15.279,3.257-22.406c0.052-0.14,0.119-0.272,0.164-0.416c0.043-0.144,0.219-0.738,0.456-1.677
	c0.959-3.018,2.097-5.953,3.382-8.811c1.535,5.793,4.22,11.601,8.791,16.27c9.41,9.616,23.821,11.357,33.03,11.357
	c4.926,0,8.364-0.499,8.751-0.558c3.221-0.489,5.769-2.984,6.328-6.195c0.136-0.786,2.37-14.244-1.552-27.26
	c10.101,6.693,23.002,7.711,29.912,7.711c2.771,0,4.579-0.164,4.855-0.19c3.243-0.315,5.922-2.668,6.653-5.843
	c0.235-1.026,5.313-23.86-5.318-39.491c2.446,0.362,5.015,0.587,7.638,0.587c5.567,0,11.365-1.005,16.691-3.818
	c18.26-9.645,22.096-35.864,22.25-36.976c0.448-3.227-1.216-6.379-4.135-7.829c-1.005-0.499-24.822-12.111-43.084-2.464
	c-6.903,3.645-11.741,9.659-15.102,15.79c0.188-1.232,0.306-2.487,0.342-3.765c0.572-20.644-20.377-36.868-21.269-37.549
	c-2.59-1.976-6.155-2.075-8.851-0.246c-0.929,0.63-22.745,15.668-23.319,36.31c-0.097,3.49,0.431,6.848,1.364,10.032
	c-7.347-11.021-18.54-17.796-19.212-18.196c-2.8-1.665-6.352-1.353-8.819,0.773c-0.851,0.734-20.797,18.175-18.997,38.749
	c0.341,3.897,1.434,7.546,2.983,10.909c-12.758-6.694-27.755-6.387-28.595-6.356c-3.257,0.091-6.09,2.254-7.038,5.372
	c-0.326,1.074-7.844,26.482,4.685,42.9c7.871,10.313,21.249,13.929,30.389,15.186c-1.137,5.866-1.752,11.915-1.792,18.1H30.99
	c-4.186,0-7.578,3.392-7.578,7.578v187.569H7.578c-2.679,0-5.16,1.414-6.524,3.723c-1.364,2.307-1.407,5.162-0.114,7.51
	l26.458,48.056L0.94,479.17c-1.292,2.347-1.249,5.202,0.114,7.51c1.364,2.308,3.844,3.723,6.524,3.723h98.455
	c0.109,0,0.216-0.012,0.324-0.016c0.112,0.005,0.223,0.016,0.335,0.016c1.896,0,3.796-0.707,5.267-2.13l39.102-37.811h210.533
	l39.102,37.811c0.066,0.064,0.136,0.118,0.204,0.179c0.101,0.091,0.2,0.183,0.306,0.268c0.096,0.078,0.196,0.148,0.294,0.22
	c0.098,0.072,0.194,0.145,0.296,0.211c0.109,0.072,0.221,0.136,0.333,0.202c0.098,0.058,0.195,0.117,0.296,0.171
	c0.116,0.062,0.235,0.115,0.354,0.171c0.103,0.047,0.205,0.097,0.311,0.14c0.119,0.048,0.24,0.09,0.361,0.132
	c0.11,0.038,0.219,0.08,0.332,0.113c0.123,0.036,0.248,0.065,0.372,0.096c0.113,0.027,0.225,0.059,0.34,0.081
	c0.142,0.028,0.285,0.045,0.428,0.066c0.099,0.014,0.197,0.032,0.297,0.042c0.247,0.024,0.493,0.037,0.741,0.037l0,0l0,0h98.457
	c2.679,0,5.16-1.415,6.524-3.723c1.364-2.307,1.407-5.162,0.114-7.51L484.602,431.116z M413.791,102.322
	c5.394,2.599,10.453,5.778,15.127,9.43c-5.686,0.937-11.779,2.805-17.084,6.321C413.395,112.638,413.838,107.097,413.791,102.322z
	 M496.171,110.58c1.102,6.999,1.37,17.283-3.467,23.621c-4.833,6.333-14.812,8.788-21.844,9.574
	c-1.036-6.45-1.654-16.941,3.442-23.617C479.143,113.817,489.138,111.363,496.171,110.58z M438.63,87.233
	c0.695-7.944,7.826-15.368,13.35-19.792c4.675,5.323,10.406,13.868,9.71,21.81c-0.69,7.897-7.739,15.276-13.249,19.709
	c-0.415-0.428-0.832-0.857-1.254-1.278C442.777,102.334,437.99,94.532,438.63,87.233z M423.532,85.91
	c-0.128,1.462-0.135,2.905-0.059,4.33c-1.486-0.783-2.995-1.529-4.525-2.236c1.858-2.144,3.776-4.628,5.529-7.385
	C424.021,82.328,423.691,84.091,423.532,85.91z M403.824,39.084c5.255,4.751,11.928,12.581,12.15,20.551
	c0.221,7.973-6.011,16.165-10.99,21.195c-5.256-4.751-11.929-12.582-12.15-20.552C392.613,52.307,398.845,44.115,403.824,39.084z
	 M383.795,79.162L383.795,79.162c-0.001,0-0.001-0.002-0.002-0.003C383.794,79.161,383.795,79.161,383.795,79.162z M345.034,82.542
	c-7.051-3.725-11.124-13.178-13.057-19.985c6.719-2.242,16.819-4.207,23.868-0.483c7.044,3.721,11.115,13.156,13.051,19.962
	C362.706,84.125,352.459,86.466,345.034,82.542z M370.921,129.516c-0.59-6.506-0.485-17.013,5.058-23.325
	c5.257-5.985,15.381-7.749,22.45-8.051c0.59,6.507,0.485,17.015-5.058,23.326C388.113,127.452,377.99,129.216,370.921,129.516z
	 M434.113,149.04c-5.571,5.691-15.749,6.933-22.851,6.825c-0.237-6.528,0.433-17.014,6.31-23.018v0.001
	c5.572-5.691,15.796-6.916,22.851-6.826C440.66,132.551,439.988,143.039,434.113,149.04z M100.696,102.322
	c-0.048,4.776,0.396,10.317,1.957,15.749c-5.305-3.515-11.398-5.384-17.083-6.321C90.244,108.1,95.301,104.92,100.696,102.322z
	 M103.252,155.864c-7.087,0.091-17.3-1.127-22.879-6.825c-5.572-5.691-6.569-15.919-6.336-22.992
	c6.529-0.087,17.002,0.798,22.878,6.799C102.494,138.547,103.486,148.792,103.252,155.864z M143.594,129.492
	c-6.528-0.255-16.936-1.714-22.478-8.024c-5.262-5.992-5.701-16.276-5.083-23.326c7.078,0.298,17.214,2.06,22.475,8.051
	C143.764,112.176,144.209,122.443,143.594,129.492z M158.641,62.074c7.051-3.725,17.155-1.758,23.868,0.481
	c-1.936,6.815-6.007,16.264-13.057,19.987c-7.052,3.725-17.155,1.758-23.869-0.481C147.519,75.246,151.591,65.798,158.641,62.074z
	 M130.691,79.162L130.691,79.162c-0.001,0,0-0.002,0.001-0.003C130.692,79.161,130.691,79.161,130.691,79.162z M110.661,39.084
	c4.985,5.035,11.213,13.225,10.992,21.194c-0.221,7.963-6.884,15.787-12.13,20.534c-4.61-4.629-11.242-12.78-11.009-21.178
	C98.735,51.664,105.411,43.831,110.661,39.084z M95.538,88.005c-1.53,0.707-3.038,1.454-4.525,2.236
	c0.077-1.426,0.07-2.868-0.059-4.33c-0.16-1.82-0.489-3.583-0.946-5.29C91.762,83.376,93.68,85.861,95.538,88.005z M62.506,67.441
	c5.529,4.429,12.656,11.849,13.351,19.792c0.639,7.298-4.146,15.099-8.551,20.443c-0.419,0.417-0.832,0.842-1.243,1.266
	c-5.108-4.085-12.539-11.377-13.266-19.691C52.102,81.306,57.835,72.758,62.506,67.441z M21.781,134.202
	c-4.838-6.339-4.568-16.629-3.468-23.621c7.04,0.783,17.032,3.239,21.869,9.577c4.839,6.338,4.569,16.628,3.469,23.619
	C36.61,142.993,26.617,140.539,21.781,134.202z M460.897,191.838h13.193v179.991h-13.193V191.838z M277.378,324.042h-9.779
	l-7.894-13.659l4.889-8.461L277.378,324.042z M312.157,172.412l23.097,13.349l-13.349,23.097l-23.097-13.349L312.157,172.412z
	 M371.473,206.691l-13.349,23.099l-23.098-13.348l13.349-23.098L371.473,206.691z M407.693,227.623l-13.349,23.098l-23.098-13.349
	l13.349-23.098L407.693,227.623z M327.445,229.563l23.097,13.349l-13.349,23.097l-23.097-13.349L327.445,229.563z M373.274,287.182
	l-23.098-13.349l13.488-23.34l23.099,13.349L373.274,287.182z M291.226,208.631l23.098,13.348l-13.488,23.34l-23.098-13.349
	L291.226,208.631z M201.073,245.319l-13.488-23.34l23.098-13.348l13.488,23.34L201.073,245.319z M143.782,229.789l-13.349-23.099
	l23.098-13.348l13.349,23.098L143.782,229.789z M94.213,227.623l23.098-13.349l13.349,23.098l-23.098,13.349L94.213,227.623z
	 M174.462,229.563l13.349,23.097l-23.097,13.349l-13.349-23.097L174.462,229.563z M203.098,195.51l-23.097,13.349l-13.349-23.097
	l23.097-13.349L203.098,195.51z M128.634,287.182l-13.488-23.34l23.099-13.349l13.488,23.34L128.634,287.182z M224.422,249.329
	l6.516-3.767l0.814-0.471l10.45,18.08l-4.89,8.461L224.422,249.329z M243.752,290.78c0.031-0.051,0.059-0.102,0.089-0.154
	l13.559-23.463c0.023-0.037,0.043-0.077,0.067-0.115l12.689-21.956l0.814,0.471l6.516,3.767l-19.348,33.48
	c-0.005,0.008-0.009,0.016-0.014,0.024L244.505,306.4c-0.016,0.026-0.031,0.055-0.046,0.081l-10.148,17.56h-9.779L243.752,290.78z
	 M114.271,339.197h97.105c0.005,0,0.01,0.001,0.015,0.001c0.005,0,0.01-0.001,0.015-0.001h51.811c0.005,0,0.01,0.001,0.015,0.001
	s0.01-0.001,0.015-0.001H290.5c0.005,0,0.01,0.001,0.015,0.001c0.005,0,0.01-0.001,0.015-0.001h107.857v40.209v55.9H114.271V339.197
	z M38.569,191.838h13.193v179.991H38.569V191.838z M98.457,475.247H20.402l22.285-40.477c1.252-2.275,1.252-5.034,0-7.309
	l-22.286-40.478h10.591H59.34h39.117C98.457,386.983,98.457,475.247,98.457,475.247z M113.612,465.593v-15.132h15.648
	L113.612,465.593z M398.388,450.462v14.495l-14.99-14.495H398.388z M413.543,475.247v-32.363v-55.9h39.776h28.349h9.932
	l-22.286,40.478c-1.252,2.275-1.252,5.034,0,7.309l22.286,40.477h-78.056V475.247z"/>
<path d="M322.277,365.512H183.749c-11.986,0-21.739,9.752-21.739,21.74c0,11.986,9.752,21.739,21.739,21.739h138.528
	c11.987,0,21.739-9.752,21.739-21.739S334.264,365.512,322.277,365.512z M322.277,393.836H183.749c-3.63,0-6.583-2.953-6.583-6.583
	c0-3.631,2.953-6.584,6.583-6.584h138.528c3.63,0,6.583,2.953,6.583,6.584C328.86,390.882,325.907,393.836,322.277,393.836z"/>
</svg>